<svg width="587" height="557" viewBox="0 0 587 557" fill="none" xmlns="http://www.w3.org/2000/svg">
<path style="mix-blend-mode:overlay" opacity="0.58" d="M344.744 538.039H104.666C103.176 538.1 101.694 537.769 100.335 537.074C98.9756 536.378 97.7756 535.336 96.8282 534.028C95.8807 532.72 95.2112 531.182 94.8716 529.532C94.5321 527.883 94.5316 526.166 94.8702 524.517L119.64 364.83C120.307 361.121 122.05 357.774 124.589 355.322C127.127 352.871 130.316 351.458 133.645 351.307H373.723C375.212 351.247 376.695 351.577 378.054 352.273C379.413 352.968 380.613 354.011 381.561 355.319C382.508 356.626 383.178 358.165 383.517 359.814C383.857 361.464 383.857 363.18 383.519 364.83L358.749 524.517C358.081 528.225 356.339 531.573 353.8 534.024C351.261 536.475 348.073 537.889 344.744 538.039Z" fill="url(#paint0_linear)"/>
<path style="mix-blend-mode:overlay" d="M329.082 524.559H89.0037C87.513 524.616 86.0307 524.283 84.6715 523.584C83.3124 522.886 82.1129 521.842 81.1658 520.533C80.2187 519.223 79.5495 517.684 79.21 516.034C78.8704 514.383 78.8696 512.666 79.2076 511.015L103.977 351.35C104.641 347.637 106.382 344.285 108.921 341.83C111.46 339.374 114.651 337.957 117.982 337.806H358.06C359.551 337.749 361.033 338.082 362.392 338.781C363.751 339.479 364.951 340.523 365.898 341.832C366.845 343.142 367.514 344.681 367.854 346.331C368.193 347.982 368.194 349.699 367.856 351.35L343.087 511.015C342.423 514.728 340.682 518.08 338.143 520.535C335.604 522.991 332.413 524.408 329.082 524.559Z" fill="url(#paint1_linear)"/>
<g style="mix-blend-mode:overlay">
<g style="mix-blend-mode:overlay">
<path d="M99.5261 448.101L96.1366 469.962" stroke="white" stroke-width="0.57" stroke-miterlimit="10"/>
</g>
<g style="mix-blend-mode:overlay">
<path d="M98.8929 452.164L96.7698 465.898" stroke="white" stroke-width="3.43" stroke-miterlimit="10"/>
</g>
<g style="mix-blend-mode:overlay">
<path d="M106.547 456.799L99.731 500.731" stroke="white" stroke-width="0.43" stroke-miterlimit="10"/>
</g>
<g style="mix-blend-mode:overlay">
<path d="M105.467 463.719L100.439 496.139" stroke="white" stroke-width="3.43" stroke-miterlimit="10"/>
</g>
<g style="mix-blend-mode:overlay">
<path d="M121.614 413.671L115.151 455.36" stroke="white" stroke-width="0.43" stroke-miterlimit="10"/>
</g>
<g style="mix-blend-mode:overlay">
<path d="M120.031 423.808L115.58 452.524" stroke="white" stroke-width="3.43" stroke-miterlimit="10"/>
</g>
<g style="mix-blend-mode:overlay">
<path d="M131.689 402.73L127.369 430.495" stroke="white" stroke-width="0.43" stroke-miterlimit="10"/>
</g>
<g style="mix-blend-mode:overlay">
<path d="M131.689 402.73L128.02 426.305" stroke="white" stroke-width="3.43" stroke-miterlimit="10"/>
</g>
<g style="mix-blend-mode:overlay">
<path d="M141.225 395.218L137.22 420.993" stroke="white" stroke-width="0.43" stroke-miterlimit="10"/>
</g>
<g style="mix-blend-mode:overlay">
<path d="M140.833 397.652L138.71 411.364" stroke="white" stroke-width="3.43" stroke-miterlimit="10"/>
</g>
<g style="mix-blend-mode:overlay">
<path d="M147.538 408.465L144.148 430.325" stroke="white" stroke-width="0.43" stroke-miterlimit="10"/>
</g>
<g style="mix-blend-mode:overlay">
<path d="M147.147 410.899L145.024 424.612" stroke="white" stroke-width="3.43" stroke-miterlimit="10"/>
</g>
<g style="mix-blend-mode:overlay">
<path d="M154.596 416.909L152.641 429.458" stroke="white" stroke-width="0.43" stroke-miterlimit="10"/>
</g>
<g style="mix-blend-mode:overlay">
<path d="M154.168 419.639L152.455 430.728" stroke="white" stroke-width="3.43" stroke-miterlimit="10"/>
</g>
<g style="mix-blend-mode:overlay">
<path d="M160.928 430.072L156.962 455.572" stroke="white" stroke-width="0.43" stroke-miterlimit="10"/>
</g>
<g style="mix-blend-mode:overlay">
<path d="M160.351 433.733L157.669 450.979" stroke="white" stroke-width="3.43" stroke-miterlimit="10"/>
</g>
<g style="mix-blend-mode:overlay">
<path d="M166.143 450.323L163.834 465.306" stroke="white" stroke-width="0.43" stroke-miterlimit="10"/>
</g>
<g style="mix-blend-mode:overlay">
<path d="M165.584 453.984L164.579 460.439" stroke="white" stroke-width="3.43" stroke-miterlimit="10"/>
</g>
<g style="mix-blend-mode:overlay">
<path d="M173.35 457.815L170.687 475.083" stroke="white" stroke-width="0.43" stroke-miterlimit="10"/>
</g>
<g style="mix-blend-mode:overlay">
<path d="M173.146 459.232L172.289 464.671" stroke="white" stroke-width="3.43" stroke-miterlimit="10"/>
</g>
<g style="mix-blend-mode:overlay">
<path d="M184.208 441.901L179.571 471.676" stroke="white" stroke-width="0.43" stroke-miterlimit="10"/>
</g>
<g style="mix-blend-mode:overlay">
<path d="M183.984 443.234L179.571 471.676" stroke="white" stroke-width="3.43" stroke-miterlimit="10"/>
</g>
<g style="mix-blend-mode:overlay">
<path d="M193.93 433.119L191.509 448.736" stroke="white" stroke-width="0.43" stroke-miterlimit="10"/>
</g>
<g style="mix-blend-mode:overlay">
<path d="M194.265 430.939L192.142 444.652" stroke="white" stroke-width="3.43" stroke-miterlimit="10"/>
</g>
<g style="mix-blend-mode:overlay">
<path d="M203.763 423.744L199.982 448.123" stroke="white" stroke-width="0.43" stroke-miterlimit="10"/>
</g>
<g style="mix-blend-mode:overlay">
<path d="M202.794 430.008L200.373 445.562" stroke="white" stroke-width="3.43" stroke-miterlimit="10"/>
</g>
<g style="mix-blend-mode:overlay">
<path d="M210.859 431.891L207.469 453.752" stroke="white" stroke-width="0.43" stroke-miterlimit="10"/>
</g>
<g style="mix-blend-mode:overlay">
<path d="M210.579 433.733L208.456 447.445" stroke="white" stroke-width="3.43" stroke-miterlimit="10"/>
</g>
<g style="mix-blend-mode:overlay">
<path d="M220.934 420.908L217.544 442.769" stroke="white" stroke-width="0.43" stroke-miterlimit="10"/>
</g>
<g style="mix-blend-mode:overlay">
<path d="M220.431 424.231L218.289 437.944" stroke="white" stroke-width="3.43" stroke-miterlimit="10"/>
</g>
<g style="mix-blend-mode:overlay">
<path d="M230.488 413.311L227.098 435.15" stroke="white" stroke-width="0.43" stroke-miterlimit="10"/>
</g>
<g style="mix-blend-mode:overlay">
<path d="M229.128 422.157L228.365 427.024" stroke="white" stroke-width="3.43" stroke-miterlimit="10"/>
</g>
<g style="mix-blend-mode:overlay">
<path d="M238.049 418.581L231.81 458.809" stroke="white" stroke-width="0.43" stroke-miterlimit="10"/>
</g>
<g style="mix-blend-mode:overlay">
<path d="M237.118 424.548L233.598 447.255" stroke="white" stroke-width="3.43" stroke-miterlimit="10"/>
</g>
<g style="mix-blend-mode:overlay">
<path d="M244.362 431.849L240.973 453.688" stroke="white" stroke-width="0.43" stroke-miterlimit="10"/>
</g>
<g style="mix-blend-mode:overlay">
<path d="M244.362 431.849L242.221 445.562" stroke="white" stroke-width="3.43" stroke-miterlimit="10"/>
</g>
<g style="mix-blend-mode:overlay">
<path d="M256.803 405.63L251.179 441.859" stroke="white" stroke-width="0.43" stroke-miterlimit="10"/>
</g>
<g style="mix-blend-mode:overlay">
<path d="M255.648 412.994L251.812 437.796" stroke="white" stroke-width="3.43" stroke-miterlimit="10"/>
</g>
<g style="mix-blend-mode:overlay">
<path d="M265.538 403.259L262.279 424.273" stroke="white" stroke-width="0.43" stroke-miterlimit="10"/>
</g>
<g style="mix-blend-mode:overlay">
<path d="M264.83 407.767L262.707 421.48" stroke="white" stroke-width="3.43" stroke-miterlimit="10"/>
</g>
<g style="mix-blend-mode:overlay">
<path d="M274.421 399.979L271.404 419.385" stroke="white" stroke-width="0.43" stroke-miterlimit="10"/>
</g>
<g style="mix-blend-mode:overlay">
<path d="M273.993 402.73L271.851 416.443" stroke="white" stroke-width="3.43" stroke-miterlimit="10"/>
</g>
<g style="mix-blend-mode:overlay">
<path d="M284.068 391.705L281.144 410.603" stroke="white" stroke-width="0.43" stroke-miterlimit="10"/>
</g>
<g style="mix-blend-mode:overlay">
<path d="M282.988 398.667L281.908 405.63" stroke="white" stroke-width="3.43" stroke-miterlimit="10"/>
</g>
<g style="mix-blend-mode:overlay">
<path d="M291.629 396.89L285.819 434.346" stroke="white" stroke-width="0.43" stroke-miterlimit="10"/>
</g>
<g style="mix-blend-mode:overlay">
<path d="M289.692 409.396L287.085 426.199" stroke="white" stroke-width="3.43" stroke-miterlimit="10"/>
</g>
<g style="mix-blend-mode:overlay">
<path d="M298.073 409.333L291.331 452.863" stroke="white" stroke-width="0.43" stroke-miterlimit="10"/>
</g>
<g style="mix-blend-mode:overlay">
<path d="M296.751 417.882L292.747 443.7" stroke="white" stroke-width="3.43" stroke-miterlimit="10"/>
</g>
<g style="mix-blend-mode:overlay">
<path d="M308.856 393.821L303.567 427.892" stroke="white" stroke-width="0.43" stroke-miterlimit="10"/>
</g>
<g style="mix-blend-mode:overlay">
<path d="M306.64 408.127L304.834 419.766" stroke="white" stroke-width="3.43" stroke-miterlimit="10"/>
</g>
<g style="mix-blend-mode:overlay">
<path d="M317.144 394.372L312.898 421.691" stroke="white" stroke-width="0.43" stroke-miterlimit="10"/>
</g>
<g style="mix-blend-mode:overlay">
<path d="M316.287 399.831L315.449 405.27" stroke="white" stroke-width="3.43" stroke-miterlimit="10"/>
</g>
<g style="mix-blend-mode:overlay">
<path d="M327.61 380.786L324.463 401.164" stroke="white" stroke-width="0.43" stroke-miterlimit="10"/>
</g>
<g style="mix-blend-mode:overlay">
<path d="M327.257 383.177L325.45 394.752" stroke="white" stroke-width="3.43" stroke-miterlimit="10"/>
</g>
<g style="mix-blend-mode:overlay">
<path d="M334.445 390.732L331.782 407.915" stroke="white" stroke-width="0.43" stroke-miterlimit="10"/>
</g>
<g style="mix-blend-mode:overlay">
<path d="M333.887 394.308L331.763 408.021" stroke="white" stroke-width="3.43" stroke-miterlimit="10"/>
</g>
<g style="mix-blend-mode:overlay">
<path d="M340.87 403.259L339.436 412.571" stroke="white" stroke-width="0.43" stroke-miterlimit="10"/>
</g>
<g style="mix-blend-mode:overlay">
<path d="M340.07 408.423L339.325 413.29" stroke="white" stroke-width="3.43" stroke-miterlimit="10"/>
</g>
<g style="mix-blend-mode:overlay">
<path d="M352.678 381.188L347.798 412.571" stroke="white" stroke-width="0.43" stroke-miterlimit="10"/>
</g>
<g style="mix-blend-mode:overlay">
<path d="M352.063 385.06L349.065 404.445" stroke="white" stroke-width="3.43" stroke-miterlimit="10"/>
</g>
</g>
<path style="mix-blend-mode:overlay" opacity="0.58" d="M490.661 326.569H309.508C307.983 326.63 306.466 326.291 305.075 325.579C303.684 324.867 302.455 323.801 301.485 322.463C300.514 321.125 299.828 319.551 299.478 317.863C299.129 316.175 299.126 314.419 299.47 312.729L321.818 168.702C322.491 164.899 324.272 161.464 326.874 158.953C329.476 156.442 332.747 155 336.159 154.862H517.311C518.837 154.797 520.356 155.133 521.749 155.844C523.143 156.554 524.373 157.621 525.344 158.96C526.315 160.299 527.001 161.875 527.349 163.564C527.697 165.254 527.697 167.012 527.349 168.702L505.001 312.729C504.332 316.534 502.552 319.971 499.949 322.483C497.346 324.995 494.074 326.435 490.661 326.569V326.569Z" fill="url(#paint2_linear)"/>
<path style="mix-blend-mode:overlay" d="M475.017 313.089H293.864C292.337 313.151 290.818 312.812 289.425 312.098C288.032 311.385 286.803 310.317 285.832 308.976C284.861 307.636 284.175 306.059 283.827 304.368C283.479 302.678 283.479 300.919 283.826 299.228L306.175 155.328C306.84 151.519 308.619 148.077 311.222 145.561C313.825 143.045 317.099 141.602 320.515 141.467H501.667C503.193 141.409 504.71 141.751 506.101 142.466C507.493 143.18 508.721 144.249 509.691 145.588C510.661 146.928 511.347 148.503 511.696 150.191C512.046 151.88 512.049 153.637 511.706 155.328L489.357 299.334C488.67 303.121 486.883 306.537 484.282 309.031C481.681 311.526 478.418 312.955 475.017 313.089V313.089Z" fill="url(#paint3_linear)"/>
<g style="mix-blend-mode:overlay">
<path d="M297.31 277.474C307.571 277.474 313.214 241.097 323.383 241.097C333.551 241.097 336.419 222.919 346.7 222.919C356.98 222.919 352.38 252.397 362.623 252.397C372.866 252.397 375.138 237.795 385.381 237.795C395.624 237.795 392.98 254.873 403.223 254.873C413.466 254.873 421.176 205.291 431.437 205.291C441.699 205.291 439.204 221.268 449.447 221.268C459.69 221.268 464.346 191.514 474.589 191.514C484.832 191.514 482.262 208.677 492.523 208.677" stroke="white" stroke-linecap="round" stroke-linejoin="round"/>
</g>
<path style="mix-blend-mode:overlay" opacity="0.58" d="M269.449 240.716H125.45C123.93 240.767 122.42 240.422 121.037 239.705C119.653 238.989 118.433 237.921 117.47 236.583C116.507 235.246 115.827 233.675 115.484 231.992C115.14 230.309 115.141 228.558 115.487 226.876L131.82 121.617C132.492 117.814 134.273 114.379 136.875 111.868C139.477 109.356 142.748 107.915 146.16 107.777H290.158C291.683 107.716 293.2 108.055 294.591 108.767C295.983 109.479 297.211 110.545 298.182 111.884C299.152 113.222 299.839 114.795 300.188 116.483C300.537 118.171 300.54 119.928 300.196 121.617L283.863 226.876C283.188 230.693 281.396 234.138 278.779 236.651C276.162 239.163 272.873 240.596 269.449 240.716Z" fill="url(#paint4_linear)"/>
<path style="mix-blend-mode:overlay" d="M253.786 227.236H109.788C108.261 227.297 106.742 226.958 105.349 226.245C103.956 225.532 102.726 224.463 101.755 223.123C100.784 221.782 100.098 220.205 99.7506 218.515C99.4028 216.824 99.4025 215.065 99.7496 213.375L116.083 108.137C116.747 104.335 118.52 100.898 121.115 98.3831C123.711 95.8679 126.977 94.4208 130.386 94.2759H274.384C275.911 94.2142 277.43 94.5531 278.823 95.2664C280.216 95.9797 281.446 97.0481 282.416 98.3887C283.387 99.7293 284.073 101.306 284.421 102.997C284.769 104.687 284.769 106.446 284.422 108.137L268.201 213.375C267.533 217.197 265.743 220.649 263.125 223.167C260.507 225.684 257.215 227.119 253.786 227.236V227.236Z" fill="url(#paint5_linear)"/>
<g style="mix-blend-mode:overlay">
<g style="mix-blend-mode:overlay">
<path d="M112.656 206.349L118.168 170.797" stroke="#757575" stroke-width="2.08" stroke-linecap="round" stroke-linejoin="round"/>
</g>
<g style="mix-blend-mode:overlay">
<path d="M128.728 206.349L138.245 144.98" stroke="#757575" stroke-width="2.08" stroke-linecap="round" stroke-linejoin="round"/>
</g>
<g style="mix-blend-mode:overlay">
<path d="M144.782 206.349L149.27 177.505" stroke="#757575" stroke-width="2.08" stroke-linecap="round" stroke-linejoin="round"/>
</g>
<g style="mix-blend-mode:overlay">
<path d="M160.854 206.349L173.63 124.072" stroke="#757575" stroke-width="2.08" stroke-linecap="round" stroke-linejoin="round"/>
</g>
<g style="mix-blend-mode:overlay">
<path d="M176.926 206.349L186.089 147.307" stroke="#757575" stroke-width="2.08" stroke-linecap="round" stroke-linejoin="round"/>
</g>
<g style="mix-blend-mode:overlay">
<path d="M192.998 206.349L198.511 170.797" stroke="#757575" stroke-width="2.08" stroke-linecap="round" stroke-linejoin="round"/>
</g>
<g style="mix-blend-mode:overlay">
<path d="M209.052 206.349L221.549 125.849" stroke="#757575" stroke-width="2.08" stroke-linecap="round" stroke-linejoin="round"/>
</g>
<g style="mix-blend-mode:overlay">
<path d="M225.124 206.349L234.287 147.307" stroke="#757575" stroke-width="2.08" stroke-linecap="round" stroke-linejoin="round"/>
</g>
<g style="mix-blend-mode:overlay">
<path d="M241.196 206.349L249.037 155.814" stroke="#757575" stroke-width="2.08" stroke-linecap="round" stroke-linejoin="round"/>
</g>
<g style="mix-blend-mode:overlay">
<path d="M257.269 206.349L262.781 170.797" stroke="#757575" stroke-width="2.08" stroke-linecap="round" stroke-linejoin="round"/>
</g>
</g>
<g style="mix-blend-mode:overlay">
<g style="mix-blend-mode:overlay">
<path d="M112.656 206.349L117.181 177.146" stroke="white" stroke-width="2.08" stroke-linecap="round" stroke-linejoin="round"/>
</g>
<g style="mix-blend-mode:overlay">
<path d="M128.728 206.349L136.55 155.92" stroke="white" stroke-width="2.08" stroke-linecap="round" stroke-linejoin="round"/>
</g>
<g style="mix-blend-mode:overlay">
<path d="M144.782 206.349L148.469 182.648" stroke="white" stroke-width="2.08" stroke-linecap="round" stroke-linejoin="round"/>
</g>
<g style="mix-blend-mode:overlay">
<path d="M160.854 206.349L171.339 138.758" stroke="white" stroke-width="2.08" stroke-linecap="round" stroke-linejoin="round"/>
</g>
<g style="mix-blend-mode:overlay">
<path d="M176.926 206.349L184.45 157.867" stroke="white" stroke-width="2.08" stroke-linecap="round" stroke-linejoin="round"/>
</g>
<g style="mix-blend-mode:overlay">
<path d="M192.998 206.349L197.524 177.146" stroke="white" stroke-width="2.08" stroke-linecap="round" stroke-linejoin="round"/>
</g>
<g style="mix-blend-mode:overlay">
<path d="M209.052 206.349L219.314 140.218" stroke="white" stroke-width="2.08" stroke-linecap="round" stroke-linejoin="round"/>
</g>
<g style="mix-blend-mode:overlay">
<path d="M225.124 206.349L232.648 157.867" stroke="white" stroke-width="2.08" stroke-linecap="round" stroke-linejoin="round"/>
</g>
<g style="mix-blend-mode:overlay">
<path d="M241.196 206.349L247.64 164.829" stroke="white" stroke-width="2.08" stroke-linecap="round" stroke-linejoin="round"/>
</g>
<g style="mix-blend-mode:overlay">
<path d="M257.269 206.349L261.794 177.146" stroke="white" stroke-width="2.08" stroke-linecap="round" stroke-linejoin="round"/>
</g>
</g>
<path d="M207.283 73.0082H162.809L170.65 22.495H215.123L207.283 73.0082Z" fill="#23EAA4"/>
<path d="M188.183 35.5007C188.253 35.0453 188.149 34.6617 187.871 34.3498C187.598 34.038 187.098 33.7559 186.37 33.5034C185.353 33.1817 184.638 32.7634 184.226 32.2486C183.82 31.7289 183.677 31.0706 183.799 30.2737C183.923 29.4619 184.262 28.7962 184.817 28.2764C185.377 27.7567 186.083 27.4473 186.934 27.3483L187.183 25.7223H188.302L188.052 27.3558C188.876 27.4696 189.476 27.8186 189.853 28.4026C190.234 28.9867 190.348 29.7861 190.193 30.8008H188.811C188.917 30.1029 188.834 29.5485 188.561 29.1377C188.289 28.7269 187.867 28.5214 187.296 28.5214C186.7 28.5214 186.221 28.6749 185.859 28.9818C185.497 29.2837 185.275 29.7069 185.192 30.2514C185.115 30.7563 185.218 31.1597 185.503 31.4616C185.793 31.7586 186.3 32.0309 187.023 32.2783C187.752 32.5209 188.307 32.7906 188.687 33.0876C189.073 33.3797 189.336 33.7212 189.477 34.1122C189.622 34.5033 189.655 34.9611 189.575 35.4858C189.447 36.3223 189.089 36.9955 188.501 37.5053C187.917 38.0152 187.16 38.3171 186.229 38.4112L186.013 39.8293H184.901L185.118 38.4112C184.199 38.327 183.518 38.0003 183.074 37.4311C182.636 36.8569 182.492 36.0798 182.642 35.0997H184.031C183.926 35.7878 184.028 36.3174 184.337 36.6886C184.646 37.0599 185.135 37.2455 185.806 37.2455C186.462 37.2455 187.002 37.0896 187.425 36.7777C187.848 36.4659 188.101 36.0402 188.183 35.5007Z" fill="#2B2B47"/>
<path d="M29.9293 552.768H15.5891L18.1219 536.473H32.4622L29.9293 552.768Z" fill="#23EAA4"/>
<path d="M50.8065 552.768H36.4663L38.9991 536.473H53.3394L50.8065 552.768Z" fill="#23EAA4"/>
<path d="M71.6651 552.768H57.3248L59.8577 536.473H74.1979L71.6651 552.768Z" fill="#23EAA4"/>
<path d="M486.973 483.103H453.171L459.15 444.694H492.933L486.973 483.103Z" fill="#23EAA4"/>
<path d="M471.291 453.638H469.07C468.972 454.382 469.065 454.954 469.351 455.354C469.637 455.754 470.099 455.955 470.735 455.955C471.182 455.955 471.613 455.89 472.026 455.76L472.002 456.675C471.522 456.789 471.05 456.847 470.587 456.847C469.631 456.847 468.919 456.568 468.453 456.012C467.991 455.451 467.826 454.66 467.959 453.638H466.929L467.037 452.929H468.067L468.187 452.146H467.157L467.266 451.431H468.296C468.487 450.432 468.898 449.66 469.529 449.115C470.164 448.566 470.95 448.292 471.887 448.292C472.296 448.292 472.752 448.351 473.255 448.469L472.997 449.395C472.597 449.262 472.185 449.195 471.761 449.195C471.129 449.195 470.611 449.39 470.208 449.778C469.81 450.163 469.545 450.714 469.412 451.431H471.628L471.519 452.146H469.297L469.178 452.929H471.399L471.291 453.638Z" fill="#2B2B47"/>
<path d="M527.983 109.978H501.965L509.135 63.824H535.153L527.983 109.978Z" fill="#23EAA4"/>
<path d="M526.455 36.0597L497.663 70.0033H544.688L526.455 36.0597Z" fill="#23EAA4"/>
<path d="M51.2349 399.81H32.4808L38.5708 360.576H57.3062L51.2349 399.81Z" fill="#23EAA4"/>
<path d="M51.6073 336.981L30.1901 365.824H64.0666L51.6073 336.981Z" fill="#23EAA4"/>
<path d="M537.779 380.574H534.371C533.973 380.586 533.587 380.423 533.292 380.12C532.997 379.816 532.816 379.395 532.788 378.945C532.644 377.365 532.318 375.814 531.819 374.331C531.697 373.837 531.711 373.311 531.861 372.826C532.011 372.342 532.289 371.921 532.657 371.623L535.395 368.956C535.817 368.612 536.103 368.094 536.193 367.513C536.284 366.932 536.171 366.333 535.879 365.845L534.017 363.2C533.842 362.985 533.631 362.814 533.395 362.697C533.16 362.579 532.905 362.519 532.648 362.519C532.391 362.519 532.136 362.579 531.901 362.697C531.665 362.814 531.454 362.985 531.279 363.2L528.523 365.845C528.207 366.199 527.801 366.43 527.363 366.506C526.925 366.582 526.477 366.499 526.083 366.269C524.921 365.45 523.669 364.809 522.358 364.364C521.961 364.254 521.619 363.969 521.406 363.573C521.193 363.176 521.127 362.7 521.222 362.248L521.837 358.354C521.879 358.091 521.868 357.821 521.806 357.563C521.744 357.305 521.633 357.066 521.479 356.863C521.326 356.661 521.134 356.499 520.919 356.391C520.704 356.283 520.471 356.231 520.235 356.238H516.827C516.293 356.251 515.777 356.466 515.362 356.849C514.947 357.232 514.657 357.762 514.536 358.354L514.034 362.311C513.947 362.819 513.735 363.288 513.421 363.663C513.108 364.038 512.706 364.304 512.264 364.428C510.758 364.892 509.298 365.53 507.906 366.332C507.539 366.567 507.112 366.652 506.696 366.576C506.28 366.499 505.899 366.264 505.616 365.909L503.753 363.264C503.579 363.049 503.367 362.877 503.132 362.76C502.896 362.643 502.642 362.582 502.385 362.582C502.127 362.582 501.873 362.643 501.637 362.76C501.402 362.877 501.19 363.049 501.016 363.264L498.278 365.909C497.857 366.254 497.57 366.771 497.48 367.352C497.389 367.934 497.502 368.532 497.794 369.02L499.656 371.686C499.93 372.065 500.08 372.54 500.08 373.03C500.08 373.52 499.93 373.995 499.656 374.374C498.711 375.808 497.905 377.355 497.254 378.987C497.074 379.452 496.784 379.851 496.415 380.139C496.047 380.427 495.615 380.592 495.168 380.616H491.685C491.139 380.638 490.615 380.87 490.199 381.273C489.783 381.677 489.499 382.228 489.395 382.838L488.817 386.563C488.759 386.833 488.758 387.115 488.812 387.387C488.866 387.658 488.976 387.912 489.131 388.127C489.286 388.343 489.483 388.514 489.707 388.628C489.93 388.742 490.174 388.796 490.419 388.785H493.846C494.246 388.773 494.635 388.939 494.931 389.247C495.226 389.554 495.405 389.981 495.429 390.435C495.566 392.009 495.892 393.554 496.397 395.028C496.517 395.515 496.504 396.032 496.361 396.512C496.219 396.991 495.952 397.41 495.596 397.715L492.859 400.381C492.438 400.726 492.151 401.242 492.057 401.822C491.963 402.402 492.07 403 492.356 403.492L494.218 406.137C494.393 406.356 494.605 406.53 494.843 406.649C495.08 406.769 495.337 406.83 495.596 406.83C495.856 406.83 496.112 406.769 496.35 406.649C496.587 406.53 496.8 406.356 496.974 406.137L499.712 403.492C500.031 403.144 500.436 402.917 500.873 402.841C501.31 402.765 501.756 402.845 502.152 403.069C503.315 403.886 504.567 404.527 505.876 404.974C506.268 405.093 506.603 405.381 506.811 405.775C507.02 406.17 507.085 406.641 506.994 407.09L506.398 410.962C506.34 411.233 506.338 411.515 506.393 411.786C506.447 412.058 506.556 412.311 506.712 412.527C506.867 412.742 507.064 412.914 507.287 413.028C507.511 413.142 507.755 413.195 508 413.184H511.296C511.839 413.158 512.359 412.924 512.771 412.521C513.183 412.118 513.464 411.569 513.568 410.962L514.183 407.09C514.275 406.585 514.49 406.119 514.802 405.746C515.115 405.372 515.513 405.104 515.952 404.974C517.452 404.509 518.906 403.871 520.291 403.069C520.661 402.829 521.091 402.74 521.512 402.817C521.932 402.894 522.316 403.132 522.601 403.492L524.463 406.137C524.637 406.356 524.85 406.53 525.088 406.649C525.325 406.769 525.582 406.83 525.841 406.83C526.101 406.83 526.357 406.769 526.595 406.649C526.832 406.53 527.045 406.356 527.219 406.137L529.957 403.492C530.375 403.144 530.658 402.627 530.748 402.047C530.838 401.468 530.728 400.871 530.441 400.381L528.579 397.715C528.305 397.336 528.155 396.861 528.155 396.371C528.155 395.881 528.305 395.406 528.579 395.028C529.508 393.592 530.306 392.054 530.963 390.435C531.141 389.963 531.433 389.558 531.805 389.266C532.178 388.974 532.615 388.807 533.067 388.785H536.494C537.06 388.762 537.601 388.514 538.023 388.085C538.445 387.656 538.721 387.072 538.803 386.436L539.38 382.711C539.425 382.447 539.417 382.174 539.357 381.913C539.296 381.653 539.185 381.411 539.031 381.206C538.877 381.001 538.685 380.837 538.468 380.728C538.252 380.619 538.016 380.566 537.779 380.574V380.574ZM512.041 397.652C510.608 397.714 509.181 397.4 507.873 396.733C506.564 396.067 505.408 395.065 504.496 393.808C503.584 392.55 502.94 391.07 502.614 389.483C502.288 387.896 502.289 386.245 502.617 384.658C503.241 381.079 504.91 377.844 507.354 375.478C509.798 373.112 512.874 371.753 516.082 371.623C517.506 371.58 518.92 371.909 520.214 372.584C521.509 373.26 522.649 374.263 523.549 375.519C524.448 376.774 525.082 378.246 525.402 379.823C525.722 381.401 525.719 383.04 525.394 384.616C524.785 388.18 523.135 391.405 520.711 393.771C518.288 396.137 515.233 397.504 512.041 397.652V397.652Z" fill="#23EAA4"/>
<path d="M491.946 357.254H490.661C490.588 357.257 490.514 357.243 490.446 357.214C490.377 357.184 490.314 357.14 490.26 357.083C490.207 357.026 490.163 356.957 490.133 356.881C490.103 356.805 490.086 356.723 490.084 356.64C490.028 356.052 489.903 355.476 489.711 354.926C489.664 354.745 489.668 354.553 489.721 354.375C489.774 354.197 489.875 354.042 490.009 353.931L491.033 352.937C491.188 352.805 491.294 352.612 491.328 352.396C491.363 352.18 491.324 351.958 491.22 351.773L490.512 350.778C490.376 350.624 490.192 350.538 490 350.538C489.808 350.538 489.624 350.624 489.488 350.778L488.463 351.773C488.344 351.902 488.193 351.987 488.03 352.018C487.867 352.048 487.7 352.022 487.551 351.942C487.118 351.626 486.648 351.384 486.154 351.223C486.009 351.178 485.884 351.072 485.804 350.927C485.725 350.781 485.697 350.607 485.726 350.44L485.949 349.001C485.973 348.9 485.975 348.794 485.956 348.692C485.937 348.59 485.896 348.494 485.838 348.414C485.78 348.333 485.705 348.269 485.621 348.228C485.537 348.186 485.445 348.168 485.353 348.175H484.124C483.922 348.182 483.728 348.267 483.575 348.418C483.422 348.568 483.32 348.774 483.286 349.001L483.044 350.44C483.013 350.628 482.935 350.801 482.819 350.94C482.704 351.079 482.555 351.177 482.392 351.223C481.829 351.39 481.285 351.631 480.772 351.942C480.633 352.03 480.473 352.061 480.317 352.03C480.161 352 480.019 351.909 479.915 351.773L479.189 350.778C479.053 350.624 478.868 350.538 478.676 350.538C478.485 350.538 478.3 350.624 478.164 350.778L477.159 351.773C477 351.901 476.892 352.094 476.857 352.312C476.822 352.529 476.864 352.753 476.972 352.937L477.68 353.931C477.785 354.07 477.843 354.246 477.843 354.429C477.843 354.611 477.785 354.788 477.68 354.926C477.342 355.465 477.049 356.039 476.805 356.64C476.737 356.814 476.628 356.963 476.49 357.072C476.352 357.18 476.19 357.243 476.023 357.254H474.738C474.535 357.267 474.342 357.354 474.187 357.503C474.033 357.652 473.925 357.854 473.881 358.079L473.676 359.476C473.656 359.576 473.657 359.68 473.678 359.78C473.699 359.881 473.739 359.974 473.797 360.054C473.854 360.133 473.927 360.197 474.009 360.24C474.092 360.283 474.181 360.303 474.272 360.301H475.538C475.688 360.295 475.835 360.356 475.946 360.471C476.057 360.585 476.125 360.744 476.134 360.915C476.193 361.5 476.311 362.075 476.488 362.629C476.535 362.809 476.532 363.002 476.478 363.18C476.425 363.358 476.324 363.513 476.19 363.623L475.166 364.618C475.01 364.749 474.906 364.944 474.874 365.161C474.843 365.379 474.887 365.601 474.998 365.782L475.706 366.777C475.842 366.93 476.026 367.017 476.218 367.017C476.41 367.017 476.594 366.93 476.73 366.777L477.755 365.782C477.874 365.653 478.025 365.567 478.188 365.537C478.351 365.507 478.518 365.533 478.667 365.613C479.099 365.929 479.57 366.171 480.064 366.332C480.209 366.377 480.334 366.483 480.413 366.628C480.493 366.773 480.521 366.947 480.492 367.115L480.269 368.554C480.245 368.655 480.242 368.761 480.262 368.863C480.281 368.965 480.322 369.06 480.38 369.141C480.438 369.222 480.513 369.285 480.597 369.327C480.681 369.368 480.773 369.386 480.865 369.379H482.075C482.28 369.374 482.476 369.289 482.632 369.139C482.788 368.989 482.894 368.782 482.932 368.554L483.156 367.115C483.192 366.927 483.274 366.753 483.393 366.615C483.511 366.477 483.661 366.379 483.826 366.332C484.389 366.165 484.933 365.924 485.446 365.613C485.584 365.525 485.745 365.494 485.901 365.524C486.057 365.555 486.199 365.646 486.303 365.782L487.011 366.777C487.147 366.93 487.331 367.017 487.523 367.017C487.715 367.017 487.899 366.93 488.035 366.777L489.059 365.782C489.214 365.651 489.319 365.458 489.354 365.242C489.389 365.026 489.35 364.803 489.245 364.618L488.519 363.623C488.424 363.48 488.372 363.306 488.372 363.126C488.372 362.947 488.424 362.772 488.519 362.629C488.87 362.095 489.17 361.521 489.413 360.915C489.479 360.739 489.588 360.588 489.726 360.48C489.865 360.371 490.027 360.309 490.195 360.301H491.462C491.665 360.292 491.86 360.205 492.015 360.056C492.17 359.906 492.277 359.702 492.318 359.476L492.542 358.079C492.562 357.979 492.561 357.874 492.54 357.774C492.519 357.674 492.479 357.581 492.421 357.501C492.364 357.422 492.291 357.358 492.209 357.315C492.126 357.272 492.036 357.251 491.946 357.254V357.254ZM482.336 363.602C481.803 363.621 481.274 363.501 480.788 363.25C480.303 363 479.875 362.626 479.536 362.158C479.198 361.69 478.959 361.14 478.837 360.55C478.716 359.96 478.715 359.346 478.835 358.756C479.065 357.424 479.686 356.22 480.596 355.34C481.505 354.46 482.651 353.956 483.845 353.91C484.379 353.888 484.911 354.006 485.398 354.255C485.886 354.504 486.317 354.877 486.657 355.346C486.998 355.814 487.239 356.366 487.361 356.957C487.484 357.549 487.485 358.164 487.364 358.756C487.135 360.087 486.518 361.291 485.612 362.174C484.707 363.057 483.566 363.568 482.373 363.623L482.336 363.602Z" fill="#23EAA4"/>
<path d="M483.249 387.896H481.386C481.173 387.902 480.966 387.816 480.807 387.655C480.647 387.494 480.548 387.27 480.53 387.028C480.459 386.181 480.29 385.349 480.027 384.552C479.959 384.294 479.961 384.017 480.035 383.761C480.108 383.504 480.248 383.278 480.436 383.113L481.908 381.696C482.136 381.512 482.292 381.234 482.341 380.921C482.39 380.608 482.328 380.285 482.168 380.024L481.144 378.606C481.049 378.494 480.934 378.405 480.808 378.344C480.682 378.283 480.546 378.252 480.408 378.252C480.271 378.252 480.135 378.283 480.009 378.344C479.883 378.405 479.768 378.494 479.673 378.606L478.202 380.024C478.031 380.209 477.815 380.331 477.582 380.373C477.349 380.414 477.11 380.374 476.898 380.257C476.275 379.807 475.598 379.464 474.887 379.241C474.68 379.176 474.503 379.024 474.392 378.815C474.281 378.606 474.245 378.357 474.291 378.119L474.607 376.003C474.635 375.859 474.635 375.709 474.604 375.565C474.574 375.422 474.516 375.288 474.433 375.173C474.35 375.059 474.246 374.968 474.128 374.906C474.01 374.845 473.881 374.814 473.75 374.818H471.981C471.692 374.835 471.417 374.961 471.197 375.175C470.978 375.39 470.828 375.681 470.771 376.003L470.435 378.119C470.386 378.389 470.271 378.637 470.103 378.836C469.935 379.034 469.721 379.175 469.486 379.241C468.678 379.475 467.896 379.816 467.158 380.257C466.96 380.38 466.731 380.425 466.508 380.383C466.285 380.34 466.081 380.214 465.929 380.024L464.904 378.606C464.809 378.494 464.694 378.405 464.568 378.344C464.442 378.283 464.306 378.252 464.169 378.252C464.031 378.252 463.896 378.283 463.769 378.344C463.643 378.405 463.528 378.494 463.433 378.606L461.962 380.024C461.733 380.207 461.577 380.486 461.529 380.799C461.48 381.112 461.542 381.434 461.701 381.696L462.725 383.113C462.864 383.32 462.94 383.573 462.94 383.833C462.94 384.093 462.864 384.346 462.725 384.552C462.226 385.328 461.796 386.157 461.44 387.028C461.343 387.277 461.188 387.49 460.99 387.643C460.793 387.796 460.562 387.884 460.323 387.896H458.46C458.168 387.908 457.888 388.032 457.665 388.247C457.442 388.462 457.29 388.756 457.231 389.081L456.915 391.091C456.886 391.236 456.887 391.385 456.918 391.529C456.948 391.673 457.006 391.807 457.089 391.921C457.171 392.035 457.276 392.127 457.394 392.188C457.512 392.25 457.641 392.28 457.771 392.276H459.634C459.848 392.271 460.056 392.361 460.212 392.527C460.369 392.693 460.462 392.922 460.472 393.165C460.546 394.007 460.722 394.833 460.993 395.62C461.054 395.881 461.046 396.157 460.97 396.413C460.894 396.669 460.753 396.894 460.565 397.059L459.094 398.477C458.868 398.667 458.715 398.949 458.666 399.264C458.618 399.579 458.677 399.903 458.833 400.17L459.857 401.567C459.953 401.679 460.067 401.768 460.193 401.828C460.32 401.889 460.456 401.921 460.593 401.921C460.73 401.921 460.866 401.889 460.992 401.828C461.119 401.768 461.233 401.679 461.329 401.567L462.8 400.149C462.97 399.963 463.186 399.841 463.419 399.8C463.653 399.758 463.891 399.799 464.103 399.916C464.73 400.363 465.406 400.712 466.115 400.953C466.323 401.018 466.501 401.169 466.615 401.377C466.729 401.585 466.77 401.834 466.729 402.074L466.394 404.191C466.366 404.335 466.367 404.485 466.397 404.628C466.427 404.772 466.486 404.906 466.568 405.02C466.651 405.135 466.755 405.226 466.873 405.288C466.992 405.349 467.121 405.379 467.251 405.376H469.02C469.312 405.363 469.592 405.24 469.815 405.025C470.038 404.81 470.191 404.516 470.249 404.191L470.566 402.074C470.619 401.807 470.736 401.561 470.903 401.363C471.07 401.165 471.282 401.023 471.516 400.953C472.322 400.702 473.102 400.354 473.844 399.916C474.045 399.79 474.277 399.745 474.503 399.787C474.729 399.83 474.936 399.957 475.091 400.149L476.116 401.567C476.211 401.679 476.326 401.768 476.452 401.828C476.578 401.889 476.714 401.921 476.851 401.921C476.989 401.921 477.124 401.889 477.251 401.828C477.377 401.768 477.491 401.679 477.587 401.567L479.058 400.17C479.277 399.973 479.425 399.692 479.473 399.38C479.521 399.068 479.466 398.746 479.319 398.477L478.276 397.059C478.137 396.852 478.062 396.6 478.062 396.34C478.062 396.08 478.137 395.827 478.276 395.62C478.785 394.86 479.216 394.037 479.561 393.165C479.653 392.911 479.807 392.693 480.006 392.535C480.204 392.378 480.437 392.288 480.678 392.276H482.541C482.833 392.264 483.113 392.141 483.336 391.926C483.559 391.711 483.712 391.417 483.77 391.091L484.068 389.081C484.096 388.94 484.095 388.794 484.067 388.654C484.039 388.513 483.984 388.381 483.905 388.268C483.827 388.154 483.727 388.062 483.614 387.998C483.5 387.934 483.375 387.899 483.249 387.896ZM469.467 397.059C468.699 397.092 467.935 396.923 467.235 396.565C466.534 396.208 465.915 395.671 465.427 394.998C464.938 394.324 464.594 393.531 464.419 392.681C464.244 391.831 464.245 390.947 464.42 390.097C464.755 388.183 465.649 386.454 466.957 385.19C468.266 383.927 469.911 383.202 471.627 383.135C472.395 383.102 473.159 383.271 473.86 383.628C474.561 383.986 475.179 384.522 475.668 385.196C476.156 385.87 476.501 386.663 476.676 387.513C476.85 388.363 476.85 389.247 476.674 390.097C476.332 392.003 475.435 393.722 474.127 394.978C472.82 396.233 471.178 396.951 469.467 397.017V397.059Z" fill="#23EAA4"/>
<path d="M120.44 311.163H109.415L111.706 296.414H122.731L120.44 311.163Z" fill="#23EAA4"/>
<path d="M136.494 311.163H125.469L129.287 286.616H140.293L136.494 311.163Z" fill="#23EAA4"/>
<path d="M152.529 311.163H141.522L147.854 270.342H158.861L152.529 311.163Z" fill="#23EAA4"/>
<path d="M168.583 311.163H157.557L165.566 259.677H176.572L168.583 311.163Z" fill="#23EAA4"/>
<path d="M435.33 16.2946H420.99L423.522 0H437.863L435.33 16.2946Z" fill="#23EAA4"/>
<path d="M456.188 16.2946H441.867L444.381 0H458.721L456.188 16.2946Z" fill="#23EAA4"/>
<path d="M477.066 16.2946H462.725L465.258 0H479.598L477.066 16.2946Z" fill="#23EAA4"/>
<path d="M51.626 156.238C52.8294 156.238 53.805 155.129 53.805 153.762C53.805 152.394 52.8294 151.286 51.626 151.286C50.4226 151.286 49.447 152.394 49.447 153.762C49.447 155.129 50.4226 156.238 51.626 156.238Z" fill="#23EAA4"/>
<path d="M127.648 59.1896C127.648 59.8462 127.418 60.476 127.01 60.9403C126.601 61.4047 126.047 61.6655 125.469 61.6655C124.891 61.6655 124.337 61.4047 123.928 60.9403C123.519 60.476 123.29 59.8462 123.29 59.1896C123.29 58.5329 123.519 57.9032 123.928 57.4388C124.337 56.9745 124.891 56.7137 125.469 56.7137C126.047 56.7137 126.601 56.9745 127.01 57.4388C127.418 57.9032 127.648 58.5329 127.648 59.1896Z" fill="#23EAA4"/>
<path d="M136.773 556.175C137.977 556.175 138.952 555.066 138.952 553.699C138.952 552.331 137.977 551.223 136.773 551.223C135.57 551.223 134.594 552.331 134.594 553.699C134.594 555.066 135.57 556.175 136.773 556.175Z" fill="#23EAA4"/>
<path d="M85.3349 276.394C85.3349 276.884 85.2071 277.363 84.9676 277.77C84.7282 278.177 84.3879 278.494 83.9898 278.682C83.5916 278.869 83.1535 278.918 82.7308 278.823C82.3081 278.727 81.9199 278.491 81.6151 278.145C81.3104 277.799 81.1029 277.358 81.0188 276.877C80.9347 276.397 80.9779 275.899 81.1428 275.447C81.3077 274.995 81.587 274.608 81.9453 274.336C82.3037 274.064 82.7249 273.919 83.1559 273.919C83.7338 273.919 84.288 274.179 84.6967 274.644C85.1053 275.108 85.3349 275.738 85.3349 276.394V276.394Z" fill="#23EAA4"/>
<path d="M557.166 272.818C558.369 272.818 559.345 271.71 559.345 270.342C559.345 268.975 558.369 267.866 557.166 267.866C555.963 267.866 554.987 268.975 554.987 270.342C554.987 271.71 555.963 272.818 557.166 272.818Z" fill="#23EAA4"/>
<path d="M563.684 140.26C563.684 140.75 563.556 141.229 563.317 141.636C563.077 142.043 562.737 142.361 562.339 142.548C561.941 142.735 561.503 142.784 561.08 142.689C560.657 142.593 560.269 142.357 559.964 142.011C559.66 141.665 559.452 141.224 559.368 140.744C559.284 140.263 559.327 139.765 559.492 139.313C559.657 138.861 559.936 138.474 560.295 138.202C560.653 137.93 561.074 137.785 561.505 137.785C562.082 137.79 562.633 138.053 563.04 138.516C563.448 138.979 563.679 139.606 563.684 140.26V140.26Z" fill="#23EAA4"/>
<path d="M444.027 537.849C445.231 537.849 446.206 536.74 446.206 535.373C446.206 534.005 445.231 532.897 444.027 532.897C442.824 532.897 441.848 534.005 441.848 535.373C441.848 536.74 442.824 537.849 444.027 537.849Z" fill="#23EAA4"/>
<path d="M548.431 471.485C549.635 471.485 550.61 470.377 550.61 469.009C550.61 467.642 549.635 466.533 548.431 466.533C547.228 466.533 546.252 467.642 546.252 469.009C546.252 470.377 547.228 471.485 548.431 471.485Z" fill="#23EAA4"/>
<path d="M318.876 4.67675C318.876 5.16278 318.749 5.63797 318.513 6.0431C318.277 6.44823 317.941 6.76538 317.547 6.95501C317.153 7.14464 316.719 7.19836 316.298 7.10949C315.878 7.02062 315.49 6.79307 315.182 6.45522C314.875 6.11738 314.662 5.68416 314.569 5.20959C314.477 4.73501 314.51 4.24006 314.663 3.78644C314.817 3.33281 315.084 2.94057 315.433 2.65861C315.781 2.37665 316.195 2.21744 316.622 2.20082C316.915 2.18945 317.206 2.2451 317.479 2.36443C317.752 2.48376 318.001 2.66433 318.212 2.89538C318.422 3.12644 318.589 3.40324 318.703 3.70928C318.817 4.01533 318.876 4.34436 318.876 4.67675V4.67675Z" fill="#23EAA4"/>
<path d="M4.35786 463.211C4.36155 463.702 4.23642 464.184 3.99841 464.594C3.76041 465.005 3.42029 465.325 3.02139 465.515C2.62248 465.705 2.18283 465.756 1.75842 465.661C1.33402 465.566 0.944058 465.33 0.638207 464.983C0.332355 464.635 0.124451 464.192 0.0409697 463.71C-0.0425117 463.228 0.00220732 462.728 0.169432 462.275C0.336657 461.821 0.61882 461.435 0.97999 461.165C1.34116 460.894 1.76499 460.752 2.19752 460.756C2.77048 460.756 3.31997 461.015 3.72511 461.475C4.13026 461.935 4.35786 462.56 4.35786 463.211Z" fill="#23EAA4"/>
<path d="M585.157 213.099C585.157 214.46 584.801 215.79 584.134 216.919C583.466 218.049 582.518 218.928 581.41 219.443C580.302 219.959 579.084 220.089 577.911 219.815C576.738 219.542 575.663 218.878 574.823 217.909C573.983 216.939 573.416 215.708 573.194 214.371C572.972 213.034 573.105 211.652 573.576 210.401C574.047 209.151 574.834 208.087 575.839 207.347C576.843 206.606 578.019 206.222 579.216 206.243C580.8 206.271 582.311 207.005 583.423 208.288C584.535 209.571 585.157 211.299 585.157 213.099V213.099Z" stroke="#23EAA4" stroke-width="2" stroke-miterlimit="10"/>
<path d="M521.055 522.316C521.055 523.672 520.701 524.998 520.038 526.125C519.375 527.253 518.432 528.131 517.33 528.65C516.227 529.169 515.014 529.305 513.843 529.04C512.673 528.776 511.598 528.123 510.754 527.164C509.91 526.205 509.335 524.983 509.102 523.653C508.87 522.323 508.989 520.945 509.446 519.692C509.902 518.439 510.676 517.368 511.668 516.615C512.66 515.862 513.827 515.459 515.02 515.459C516.621 515.459 518.156 516.182 519.287 517.468C520.419 518.753 521.055 520.497 521.055 522.316V522.316Z" stroke="#23EAA4" stroke-width="2" stroke-miterlimit="10"/>
<path d="M268.294 8.14729C268.294 9.50336 267.94 10.829 267.277 11.9565C266.614 13.0841 265.672 13.9629 264.569 14.4818C263.466 15.0008 262.253 15.1365 261.083 14.872C259.912 14.6074 258.837 13.9544 257.993 12.9955C257.149 12.0366 256.575 10.8149 256.342 9.48491C256.109 8.1549 256.228 6.7763 256.685 5.52345C257.142 4.2706 257.915 3.19978 258.908 2.44638C259.9 1.69299 261.066 1.29087 262.26 1.29087C263.053 1.28807 263.839 1.46351 264.572 1.80709C265.305 2.15067 265.971 2.6556 266.532 3.29284C267.093 3.93007 267.537 4.68703 267.84 5.52015C268.142 6.35327 268.296 7.24611 268.294 8.14729V8.14729Z" stroke="#23EAA4" stroke-width="2" stroke-miterlimit="10"/>
<defs>
<linearGradient id="paint0_linear" x1="309.136" y1="307.016" x2="140.78" y2="563.652" gradientUnits="userSpaceOnUse">
<stop stop-color="white" stop-opacity="0.08"/>
<stop offset="0.01" stop-color="#FEFEFE"/>
<stop offset="0.26" stop-color="#E1E1E1"/>
<stop offset="0.51" stop-color="#CDCDCD"/>
<stop offset="0.76" stop-color="#C1C1C1"/>
<stop offset="1" stop-color="#BDBDBD"/>
</linearGradient>
<linearGradient id="paint1_linear" x1="45641" y1="26315" x2="35035.3" y2="54758.6" gradientUnits="userSpaceOnUse">
<stop stop-color="#403683"/>
<stop offset="0.26" stop-color="#403683"/>
<stop offset="0.51" stop-color="#403683"/>
<stop offset="0.76" stop-color="#403683"/>
<stop offset="0.9999" stop-color="#1E173E"/>
<stop offset="1" stop-color="#403683"/>
</linearGradient>
<linearGradient id="paint2_linear" x1="58286.7" y1="10260.7" x2="49039.3" y2="31564.8" gradientUnits="userSpaceOnUse">
<stop stop-color="white"/>
<stop offset="0.01" stop-color="#FEFEFE"/>
<stop offset="0.26" stop-color="#E1E1E1"/>
<stop offset="0.51" stop-color="#CDCDCD"/>
<stop offset="0.76" stop-color="#C1C1C1"/>
<stop offset="1" stop-color="#BDBDBD"/>
</linearGradient>
<linearGradient id="paint3_linear" x1="56352.2" y1="9148.9" x2="47112.5" y2="30444" gradientUnits="userSpaceOnUse">
<stop stop-color="#403683"/>
<stop offset="0.234375" stop-color="#403683"/>
<stop offset="0.411458" stop-color="#403683"/>
<stop offset="0.614583" stop-color="#403683"/>
<stop offset="0.76" stop-color="#403683"/>
<stop offset="1" stop-color="#403683"/>
</linearGradient>
<linearGradient id="paint4_linear" x1="25417.1" y1="5336.71" x2="19975.6" y2="18467" gradientUnits="userSpaceOnUse">
<stop stop-color="white"/>
<stop offset="0.01" stop-color="#FEFEFE"/>
<stop offset="0.26" stop-color="#E1E1E1"/>
<stop offset="0.51" stop-color="#CDCDCD"/>
<stop offset="0.76" stop-color="#C1C1C1"/>
<stop offset="1" stop-color="#BDBDBD"/>
</linearGradient>
<linearGradient id="paint5_linear" x1="23839.4" y1="4477.09" x2="18396.9" y2="17607.7" gradientUnits="userSpaceOnUse">
<stop stop-color="white"/>
<stop offset="0.01" stop-color="#FEFEFE"/>
<stop offset="0.26" stop-color="#403683"/>
<stop offset="0.51" stop-color="#403683"/>
<stop offset="0.76" stop-color="#403683"/>
<stop offset="1" stop-color="#403683"/>
</linearGradient>
</defs>
</svg>
