<svg width="25" height="25" viewBox="0 0 25 25" fill="none" xmlns="http://www.w3.org/2000/svg">
<path d="M21.3388 3.66116C18.9779 1.30024 15.8388 0 12.5 0C9.16119 0 6.02207 1.30024 3.66116 3.66116C1.30024 6.02207 0 9.16119 0 12.5C0 15.8388 1.30024 18.9779 3.66116 21.3388C6.02207 23.6998 9.16119 25 12.5 25C15.8388 25 18.9779 23.6998 21.3388 21.3388C23.6998 18.9779 25 15.8388 25 12.5C25 9.16119 23.6998 6.02207 21.3388 3.66116ZM12.5 23.0469C6.68449 23.0469 1.95312 18.3155 1.95312 12.5C1.95312 6.68449 6.68449 1.95312 12.5 1.95312C18.3155 1.95312 23.0469 6.68449 23.0469 12.5C23.0469 18.3155 18.3155 23.0469 12.5 23.0469ZM13.4766 11.5225H17.8711V13.4756H13.4766V17.8701H11.5234V13.4756H7.12891V11.5225H11.5234V7.12795H13.4766V11.5225Z" fill="white"/>
</svg>
